<svg id="svg" version="1.1" xmlns="http://www.w3.org/2000/svg" xmlns:xlink="http://www.w3.org/1999/xlink" width="400" height="53.271028037383175" viewBox="0, 0, 400,53.271028037383175"><g id="svgg"><path id="path0" d="M115.667 20.333 L 115.667 40.667 120.250 40.667 L 124.833 40.667 124.833 20.333 L 124.833 0.000 120.250 0.000 L 115.667 0.000 115.667 20.333 M147.167 5.917 L 147.167 11.833 145.708 11.841 C 144.906 11.846,143.875 11.892,143.417 11.945 C 142.958 11.998,142.358 12.033,142.083 12.022 C 141.808 12.012,141.208 12.107,140.750 12.233 C 140.292 12.360,139.677 12.506,139.384 12.559 C 139.091 12.612,138.566 12.781,138.217 12.936 C 137.869 13.091,137.482 13.201,137.358 13.181 C 137.234 13.161,137.182 13.224,137.242 13.320 C 137.308 13.427,137.249 13.457,137.093 13.397 C 136.942 13.339,136.794 13.409,136.734 13.566 C 136.677 13.713,136.518 13.833,136.380 13.833 C 136.061 13.833,134.500 14.676,134.500 14.849 C 134.500 14.920,134.350 15.025,134.167 15.083 C 133.983 15.142,133.833 15.301,133.833 15.438 C 133.833 15.574,133.766 15.645,133.683 15.594 C 133.601 15.543,133.299 15.782,133.012 16.126 C 132.725 16.469,132.296 16.947,132.058 17.188 C 131.734 17.516,131.683 17.648,131.855 17.716 C 132.020 17.782,132.005 17.811,131.801 17.820 C 131.487 17.835,131.024 18.610,130.250 20.417 C 130.132 20.692,129.949 21.105,129.844 21.336 C 129.738 21.566,129.632 21.945,129.607 22.176 C 129.583 22.408,129.519 22.669,129.466 22.757 C 129.413 22.845,129.324 23.254,129.269 23.667 C 129.213 24.079,129.102 24.648,129.020 24.930 C 128.858 25.497,128.896 31.357,129.069 32.417 C 129.245 33.491,129.691 35.216,129.909 35.667 C 130.581 37.052,131.094 37.942,131.322 38.120 C 131.466 38.231,131.525 38.325,131.454 38.328 C 131.383 38.331,131.562 38.594,131.852 38.912 C 132.142 39.231,132.438 39.455,132.511 39.410 C 132.583 39.365,132.686 39.466,132.740 39.634 C 132.817 39.877,133.745 40.491,134.167 40.579 C 134.212 40.588,134.550 40.743,134.917 40.922 C 135.760 41.336,139.577 41.414,139.819 41.023 C 139.919 40.862,139.979 40.852,140.025 40.991 C 140.072 41.133,140.227 41.115,140.587 40.928 C 140.860 40.785,141.180 40.668,141.298 40.668 C 141.529 40.667,142.352 40.181,142.519 39.948 C 142.575 39.869,142.650 39.827,142.685 39.854 C 142.813 39.951,143.653 39.114,143.568 38.975 C 143.520 38.897,143.588 38.833,143.719 38.833 C 143.997 38.833,144.968 37.754,145.180 37.208 C 145.260 37.002,145.402 36.833,145.496 36.833 C 145.590 36.833,145.667 36.695,145.667 36.526 C 145.667 36.357,145.850 36.006,146.073 35.745 C 146.297 35.485,146.471 35.230,146.461 35.178 C 146.450 35.126,146.524 34.896,146.624 34.667 C 146.724 34.438,146.869 34.100,146.945 33.917 C 147.026 33.721,147.102 35.042,147.128 37.125 L 147.173 40.667 151.753 40.667 L 156.333 40.667 156.333 20.333 L 156.333 0.000 151.750 0.000 L 147.167 0.000 147.167 5.917 M178.667 1.601 C 178.346 1.640,177.558 1.760,176.917 1.867 C 176.275 1.975,175.652 2.044,175.532 2.022 C 175.412 1.999,175.074 2.054,174.782 2.143 C 174.489 2.232,173.967 2.353,173.620 2.411 C 173.274 2.469,173.032 2.584,173.083 2.666 C 173.134 2.749,173.036 2.789,172.866 2.756 C 172.696 2.723,172.337 2.792,172.070 2.909 C 170.769 3.476,170.572 3.558,170.417 3.594 C 169.915 3.712,169.366 4.011,168.969 4.381 C 168.722 4.610,168.476 4.754,168.422 4.700 C 168.369 4.646,168.110 4.837,167.847 5.125 C 167.584 5.412,167.334 5.612,167.291 5.569 C 167.048 5.326,163.703 9.040,163.822 9.420 C 163.844 9.490,163.775 9.599,163.670 9.665 C 163.564 9.730,163.462 9.889,163.443 10.018 C 163.425 10.147,163.283 10.433,163.128 10.653 C 162.974 10.874,162.881 11.109,162.922 11.175 C 162.963 11.241,162.885 11.388,162.748 11.502 C 162.612 11.615,162.500 11.886,162.500 12.104 C 162.500 12.322,162.442 12.500,162.371 12.500 C 162.250 12.500,161.906 13.609,161.759 14.477 C 161.722 14.693,161.596 15.100,161.480 15.382 C 161.320 15.768,161.316 15.911,161.463 15.960 C 161.607 16.008,161.599 16.120,161.432 16.387 C 161.307 16.587,161.218 16.956,161.233 17.208 C 161.248 17.460,161.197 17.667,161.118 17.667 C 160.961 17.667,161.081 25.431,161.257 26.708 C 161.318 27.144,161.422 27.500,161.489 27.500 C 161.615 27.500,161.647 27.654,161.694 28.493 C 161.710 28.769,161.794 28.941,161.887 28.884 C 161.981 28.825,161.999 28.867,161.928 28.982 C 161.860 29.091,161.889 29.283,161.992 29.407 C 162.095 29.531,162.210 29.794,162.248 29.992 C 162.286 30.189,162.428 30.573,162.564 30.845 C 162.700 31.117,162.747 31.300,162.669 31.251 C 162.591 31.203,162.747 31.618,163.016 32.173 C 163.325 32.811,163.575 33.140,163.695 33.066 C 163.812 32.994,163.839 33.023,163.766 33.141 C 163.642 33.342,164.143 34.333,164.369 34.333 C 164.441 34.333,164.501 34.427,164.503 34.542 C 164.508 34.868,166.932 37.333,167.376 37.462 C 167.445 37.482,167.731 37.705,168.012 37.958 C 168.632 38.515,169.752 39.167,170.088 39.167 C 170.223 39.167,170.333 39.246,170.333 39.343 C 170.333 39.440,170.408 39.473,170.500 39.417 C 170.592 39.360,170.667 39.378,170.667 39.457 C 170.667 40.206,176.532 41.241,180.750 41.235 C 184.831 41.230,187.003 41.028,188.762 40.490 C 189.043 40.404,189.484 40.333,189.741 40.333 C 190.119 40.333,190.171 40.290,190.016 40.103 C 189.870 39.926,189.879 39.851,190.058 39.783 C 190.287 39.695,190.597 38.656,190.540 38.167 C 190.524 38.029,190.586 37.692,190.678 37.417 C 190.770 37.142,190.882 36.392,190.926 35.750 C 190.970 35.108,191.046 34.151,191.095 33.623 C 191.200 32.486,191.142 32.352,190.589 32.458 C 190.359 32.502,190.207 32.598,190.252 32.670 C 190.297 32.743,190.181 32.762,189.995 32.714 C 189.809 32.665,189.190 32.720,188.620 32.836 C 188.050 32.952,187.300 33.033,186.954 33.016 C 186.608 33.000,186.249 33.033,186.156 33.090 C 185.722 33.358,179.776 33.473,178.482 33.237 C 178.080 33.164,177.689 33.120,177.615 33.139 C 177.540 33.158,177.278 33.072,177.031 32.948 C 175.104 31.977,174.639 31.674,173.810 30.850 C 173.292 30.337,172.805 29.879,172.726 29.833 C 172.648 29.787,172.601 29.696,172.623 29.630 C 172.645 29.565,172.476 29.160,172.248 28.731 C 172.020 28.301,171.833 27.896,171.833 27.829 C 171.833 27.762,171.720 27.436,171.581 27.104 C 171.443 26.773,171.324 26.445,171.317 26.376 C 171.311 26.307,171.251 26.175,171.184 26.083 C 171.118 25.992,171.083 25.729,171.105 25.500 C 171.128 25.271,171.105 24.971,171.055 24.833 C 170.782 24.086,170.740 20.203,170.988 18.663 C 171.082 18.080,171.125 17.570,171.085 17.530 C 171.045 17.489,171.081 17.328,171.165 17.171 C 171.327 16.868,171.520 16.103,171.552 15.637 C 171.563 15.484,171.630 15.394,171.702 15.439 C 171.774 15.483,171.833 15.410,171.833 15.276 C 171.833 14.905,172.959 12.984,173.515 12.406 C 173.785 12.125,173.948 11.837,173.878 11.767 C 173.808 11.696,173.834 11.664,173.938 11.694 C 174.041 11.725,174.359 11.544,174.645 11.292 C 174.930 11.040,175.247 10.833,175.348 10.833 C 175.449 10.833,175.750 10.678,176.017 10.488 C 176.284 10.298,176.708 10.110,176.960 10.070 C 177.211 10.031,177.792 9.895,178.250 9.768 C 179.242 9.494,183.598 9.539,185.419 9.841 C 186.059 9.948,186.921 10.061,187.333 10.093 C 187.746 10.125,188.308 10.212,188.583 10.287 C 189.665 10.581,190.008 10.472,190.269 9.750 C 190.488 9.143,190.559 8.771,190.742 7.250 C 190.775 6.975,190.843 6.563,190.893 6.333 C 190.943 6.104,191.023 5.192,191.071 4.306 L 191.159 2.695 190.454 2.564 C 190.067 2.493,189.487 2.430,189.167 2.425 C 188.846 2.421,188.541 2.360,188.489 2.290 C 188.437 2.220,187.950 2.133,187.406 2.095 C 186.862 2.057,185.892 1.949,185.250 1.854 C 183.941 1.660,179.563 1.492,178.667 1.601 M273.083 1.603 C 272.717 1.641,271.892 1.752,271.250 1.848 C 270.608 1.945,269.821 2.055,269.500 2.094 C 268.937 2.163,268.339 2.273,268.167 2.340 C 268.121 2.358,268.009 2.358,267.918 2.340 C 267.752 2.306,266.803 2.564,265.960 2.872 C 265.710 2.964,265.541 3.098,265.586 3.170 C 265.630 3.243,265.518 3.263,265.336 3.216 C 265.129 3.162,264.967 3.226,264.905 3.387 C 264.847 3.539,264.698 3.604,264.545 3.546 C 264.394 3.487,264.191 3.575,264.059 3.755 C 263.935 3.925,263.833 4.009,263.833 3.943 C 263.833 3.876,263.681 3.903,263.495 4.002 C 263.309 4.102,263.201 4.254,263.254 4.340 C 263.307 4.426,263.248 4.457,263.123 4.409 C 262.997 4.361,262.710 4.493,262.484 4.702 C 262.258 4.912,262.000 5.110,261.911 5.142 C 261.823 5.174,261.769 5.268,261.792 5.350 C 261.815 5.433,261.758 5.500,261.666 5.500 C 261.424 5.500,260.332 6.697,260.430 6.855 C 260.476 6.929,260.360 7.085,260.173 7.201 C 259.986 7.318,259.833 7.499,259.833 7.603 C 259.833 7.707,259.717 7.889,259.576 8.006 C 259.434 8.124,259.357 8.321,259.404 8.443 C 259.451 8.566,259.412 8.667,259.318 8.667 C 259.224 8.667,259.193 8.742,259.250 8.833 C 259.307 8.925,259.283 9.000,259.197 9.000 C 259.057 9.000,258.901 9.476,258.731 10.417 C 258.698 10.600,258.576 11.088,258.460 11.500 C 258.162 12.563,258.217 15.896,258.548 16.777 C 258.691 17.158,258.769 17.509,258.722 17.556 C 258.608 17.669,259.000 18.788,259.374 19.417 C 259.538 19.692,259.717 20.048,259.772 20.208 C 259.827 20.369,259.938 20.500,260.019 20.500 C 260.100 20.500,260.167 20.617,260.167 20.760 C 260.167 20.903,260.242 20.973,260.333 20.917 C 260.425 20.860,260.500 20.905,260.500 21.016 C 260.500 21.265,261.738 22.500,261.987 22.500 C 262.086 22.500,262.167 22.561,262.167 22.636 C 262.167 22.751,263.416 23.547,263.667 23.592 C 263.712 23.600,264.193 23.808,264.734 24.055 C 265.275 24.302,265.756 24.466,265.802 24.420 C 265.848 24.374,265.984 24.417,266.103 24.516 C 266.305 24.684,269.509 25.503,270.250 25.576 C 270.433 25.594,270.964 25.701,271.429 25.814 C 271.895 25.927,272.345 26.001,272.429 25.979 C 272.705 25.908,275.615 26.804,275.990 27.076 C 276.180 27.213,276.200 27.197,276.084 27.000 C 276.004 26.863,276.343 27.095,276.838 27.516 C 277.809 28.343,278.093 28.978,277.950 30.000 C 277.815 30.970,277.772 31.061,277.146 31.701 C 276.813 32.041,276.588 32.372,276.646 32.436 C 276.703 32.501,276.666 32.506,276.564 32.448 C 276.462 32.389,276.050 32.504,275.648 32.702 C 275.246 32.900,274.739 33.042,274.523 33.017 C 274.306 32.992,274.168 33.034,274.215 33.111 C 274.263 33.187,274.102 33.262,273.859 33.277 C 272.569 33.357,266.834 33.339,266.333 33.254 C 266.012 33.199,265.226 33.119,264.586 33.076 C 263.946 33.033,263.306 32.961,263.165 32.916 C 262.951 32.848,261.233 32.585,259.917 32.418 C 259.733 32.395,259.471 32.333,259.333 32.281 C 258.958 32.137,257.772 31.837,257.747 31.880 C 257.705 31.953,257.983 35.091,258.061 35.417 C 258.105 35.600,258.147 36.073,258.154 36.468 C 258.163 36.966,258.226 37.150,258.359 37.067 C 258.469 36.999,258.507 37.021,258.446 37.119 C 258.279 37.389,258.794 39.559,259.074 39.764 C 259.214 39.866,259.285 39.993,259.232 40.046 C 259.096 40.182,260.204 40.475,261.612 40.677 C 262.269 40.771,262.982 40.886,263.195 40.933 C 264.772 41.278,274.133 41.335,275.583 41.008 C 276.042 40.905,276.717 40.777,277.083 40.724 C 277.450 40.671,277.787 40.580,277.833 40.522 C 277.879 40.463,278.142 40.393,278.417 40.366 C 278.692 40.339,279.142 40.213,279.417 40.086 C 279.905 39.860,280.500 39.627,280.667 39.597 C 281.012 39.534,282.667 38.608,282.667 38.478 C 282.667 38.388,282.737 38.357,282.823 38.410 C 282.909 38.464,283.040 38.408,283.115 38.287 C 283.189 38.166,283.495 37.896,283.794 37.687 C 284.093 37.479,284.287 37.227,284.226 37.128 C 284.165 37.029,284.191 36.996,284.285 37.053 C 284.496 37.184,285.500 36.103,285.500 35.745 C 285.500 35.599,285.575 35.527,285.667 35.583 C 285.758 35.640,285.833 35.581,285.833 35.452 C 285.833 35.323,285.985 35.042,286.171 34.828 C 286.357 34.614,286.555 34.246,286.611 34.011 C 286.667 33.776,286.779 33.499,286.860 33.395 C 287.814 32.177,287.816 25.677,286.863 23.898 C 286.770 23.725,286.605 23.341,286.495 23.044 C 286.385 22.747,286.228 22.545,286.147 22.595 C 286.066 22.645,286.000 22.569,286.000 22.427 C 286.000 21.789,282.717 19.013,282.281 19.282 C 282.190 19.339,282.162 19.309,282.219 19.217 C 282.318 19.057,281.676 18.667,281.314 18.667 C 281.220 18.667,281.030 18.554,280.893 18.417 C 280.755 18.279,280.465 18.167,280.248 18.167 C 280.031 18.167,279.807 18.092,279.750 18.000 C 279.693 17.908,279.468 17.833,279.250 17.833 C 279.032 17.833,278.807 17.758,278.750 17.667 C 278.693 17.575,278.456 17.500,278.223 17.500 C 277.989 17.500,277.363 17.387,276.831 17.249 C 276.299 17.112,275.670 16.983,275.432 16.963 C 275.194 16.943,275.000 16.869,275.000 16.799 C 275.000 16.728,274.831 16.680,274.625 16.692 C 274.419 16.703,274.039 16.627,273.781 16.523 C 273.523 16.419,273.107 16.333,272.856 16.333 C 272.605 16.333,272.329 16.263,272.242 16.177 C 272.155 16.090,271.884 15.984,271.640 15.940 C 271.396 15.897,271.038 15.776,270.845 15.673 C 270.651 15.569,270.428 15.525,270.349 15.574 C 270.269 15.623,270.112 15.551,269.998 15.415 C 269.885 15.278,269.658 15.167,269.493 15.167 C 269.329 15.167,269.157 15.073,269.110 14.958 C 269.051 14.811,269.022 14.821,269.013 14.991 C 269.006 15.123,268.763 14.861,268.472 14.408 C 267.712 13.219,267.945 11.114,268.863 10.874 C 269.030 10.830,269.167 10.735,269.167 10.663 C 269.167 10.510,270.379 10.061,271.593 9.765 C 272.478 9.548,277.575 9.538,278.667 9.750 C 280.725 10.150,281.981 10.364,282.417 10.388 C 282.692 10.404,282.961 10.477,283.015 10.550 C 283.069 10.624,283.422 10.712,283.799 10.747 C 284.484 10.810,284.584 10.728,284.763 9.958 C 284.779 9.890,284.810 9.796,284.833 9.750 C 284.856 9.704,284.891 9.610,284.910 9.542 C 284.930 9.473,284.989 9.304,285.041 9.167 C 285.602 7.704,285.818 3.093,285.338 2.836 C 285.136 2.728,284.931 2.681,284.880 2.731 C 284.830 2.781,284.642 2.742,284.461 2.646 C 284.118 2.462,282.564 2.176,281.417 2.085 C 281.050 2.056,280.434 1.984,280.047 1.926 C 279.661 1.867,279.099 1.784,278.797 1.741 C 277.969 1.622,273.841 1.523,273.083 1.603 M0.040 2.576 C 0.027 2.755,0.072 2.980,0.141 3.076 C 0.211 3.172,0.289 3.512,0.314 3.833 C 0.340 4.154,0.498 4.730,0.666 5.112 C 0.833 5.495,0.932 5.846,0.885 5.893 C 0.838 5.939,0.898 6.264,1.017 6.614 C 1.137 6.964,1.216 7.344,1.193 7.458 C 1.171 7.573,1.214 7.667,1.290 7.667 C 1.366 7.667,1.440 7.798,1.453 7.958 C 1.504 8.557,1.651 9.277,1.905 10.161 C 2.049 10.663,2.167 11.206,2.167 11.370 C 2.167 11.533,2.223 11.667,2.292 11.667 C 2.361 11.667,2.426 11.873,2.436 12.125 C 2.447 12.377,2.585 13.033,2.743 13.583 C 2.901 14.133,3.149 15.161,3.293 15.868 C 3.446 16.617,3.624 17.110,3.720 17.050 C 3.811 16.994,3.833 17.033,3.769 17.136 C 3.706 17.239,3.775 17.756,3.924 18.286 C 4.072 18.816,4.259 19.613,4.339 20.057 C 4.419 20.501,4.554 20.951,4.638 21.057 C 4.722 21.163,4.763 21.423,4.729 21.635 C 4.694 21.847,4.722 21.985,4.791 21.943 C 4.860 21.900,4.926 22.027,4.938 22.224 C 4.950 22.422,5.005 22.771,5.060 23.000 C 5.116 23.229,5.206 23.623,5.260 23.875 C 5.315 24.127,5.433 24.333,5.523 24.333 C 5.613 24.333,5.646 24.398,5.597 24.477 C 5.497 24.639,5.940 26.904,6.152 27.316 C 6.304 27.611,6.572 28.844,6.528 29.042 C 6.513 29.110,6.573 29.167,6.661 29.167 C 6.750 29.167,6.780 29.279,6.727 29.417 C 6.674 29.554,6.688 29.798,6.757 29.958 C 6.933 30.364,7.024 30.700,7.049 31.042 C 7.062 31.202,7.114 31.333,7.167 31.333 C 7.219 31.333,7.271 31.465,7.282 31.625 C 7.316 32.102,7.807 34.156,7.939 34.369 C 8.006 34.478,8.078 34.720,8.100 34.908 C 8.174 35.558,8.280 36.086,8.454 36.667 C 8.550 36.987,8.721 37.700,8.833 38.250 C 8.946 38.800,9.098 39.475,9.171 39.750 C 9.244 40.025,9.348 40.451,9.402 40.697 L 9.501 41.144 13.263 41.160 C 16.128 41.173,16.997 41.130,16.904 40.980 C 16.826 40.854,16.853 40.826,16.977 40.903 C 17.252 41.073,19.648 40.662,19.910 40.400 C 20.029 40.280,20.165 40.220,20.211 40.266 C 20.353 40.409,21.555 39.657,22.133 39.064 C 22.435 38.754,22.642 38.500,22.591 38.500 C 22.541 38.500,22.652 38.348,22.837 38.163 C 23.239 37.761,24.167 35.791,24.167 35.339 C 24.167 35.163,24.247 34.970,24.345 34.910 C 24.443 34.849,24.476 34.678,24.419 34.530 C 24.362 34.382,24.374 34.319,24.446 34.390 C 24.517 34.462,24.713 33.934,24.881 33.218 C 25.049 32.502,25.248 31.654,25.323 31.333 C 25.398 31.012,25.623 30.113,25.822 29.333 C 26.021 28.554,26.249 27.654,26.329 27.333 C 26.409 27.012,26.558 26.430,26.661 26.038 C 26.764 25.647,26.796 25.241,26.732 25.137 C 26.668 25.034,26.688 24.993,26.776 25.048 C 26.866 25.104,27.029 24.693,27.145 24.115 C 27.260 23.548,27.419 22.858,27.499 22.583 C 27.579 22.308,27.730 21.757,27.834 21.358 C 27.939 20.959,28.069 20.515,28.124 20.372 C 28.197 20.181,28.161 20.150,27.987 20.255 C 27.783 20.378,27.782 20.357,27.985 20.107 C 28.259 19.770,28.493 20.001,28.497 20.615 C 28.499 20.816,28.576 21.027,28.669 21.085 C 28.763 21.143,28.802 21.250,28.756 21.323 C 28.678 21.450,29.054 23.134,29.280 23.667 C 29.338 23.804,29.371 24.008,29.354 24.120 C 29.336 24.231,29.479 24.633,29.673 25.012 C 29.866 25.391,29.944 25.652,29.846 25.591 C 29.615 25.449,29.616 25.760,29.847 26.192 C 29.946 26.378,30.058 26.729,30.096 26.973 C 30.172 27.462,30.356 28.189,30.693 29.333 C 30.815 29.746,30.895 30.167,30.872 30.269 C 30.848 30.371,30.942 30.671,31.080 30.935 C 31.218 31.200,31.332 31.582,31.332 31.784 C 31.334 32.330,31.815 34.076,31.979 34.131 C 32.057 34.158,32.096 34.398,32.065 34.664 C 32.034 34.931,32.150 35.465,32.322 35.850 C 32.495 36.236,32.600 36.647,32.555 36.763 C 32.511 36.879,32.558 37.131,32.661 37.323 C 32.764 37.515,32.873 37.914,32.905 38.211 C 33.001 39.124,33.201 39.832,33.338 39.747 C 33.410 39.703,33.434 39.800,33.391 39.963 C 33.349 40.126,33.391 40.464,33.486 40.713 L 33.658 41.167 37.371 41.159 C 39.413 41.155,41.421 41.080,41.833 40.992 C 42.246 40.904,42.930 40.770,43.353 40.694 C 44.628 40.467,46.833 39.048,46.833 38.455 C 46.833 38.376,47.006 38.072,47.218 37.781 C 47.543 37.332,48.500 35.185,48.500 34.904 C 48.500 34.854,48.417 34.865,48.316 34.927 C 48.215 34.990,48.271 34.829,48.441 34.570 C 48.611 34.310,48.753 33.982,48.757 33.841 C 48.761 33.699,48.854 33.321,48.963 33.000 C 49.072 32.679,49.181 32.068,49.206 31.642 C 49.230 31.216,49.298 30.896,49.356 30.932 C 49.414 30.967,49.501 30.847,49.549 30.665 C 49.598 30.476,49.553 30.332,49.443 30.331 C 49.306 30.329,49.303 30.293,49.433 30.206 C 49.534 30.138,49.627 29.971,49.640 29.833 C 49.677 29.445,49.778 28.942,49.875 28.667 C 49.924 28.529,50.053 27.967,50.162 27.417 C 50.271 26.867,50.472 25.979,50.610 25.443 C 50.747 24.908,50.820 24.432,50.773 24.385 C 50.726 24.338,50.766 24.101,50.862 23.858 C 50.958 23.615,51.070 23.154,51.110 22.833 C 51.151 22.512,51.254 22.063,51.340 21.833 C 51.425 21.604,51.497 21.267,51.499 21.083 C 51.505 20.518,51.611 19.935,51.789 19.500 C 52.066 18.819,52.346 17.488,52.245 17.325 C 52.193 17.242,52.238 17.011,52.344 16.813 C 52.451 16.614,52.560 16.216,52.586 15.927 C 52.613 15.639,52.726 15.068,52.838 14.660 C 53.166 13.461,53.501 11.779,53.427 11.705 C 53.389 11.667,53.461 11.346,53.586 10.992 C 53.711 10.637,53.812 10.213,53.811 10.049 C 53.809 9.884,53.895 9.450,54.001 9.083 C 54.108 8.717,54.226 8.229,54.265 8.000 C 54.486 6.702,55.041 4.139,55.254 3.439 C 55.389 2.993,55.500 2.543,55.500 2.439 C 55.500 2.157,45.898 2.264,45.865 2.547 C 45.852 2.658,45.778 3.097,45.700 3.522 C 45.623 3.946,45.570 4.449,45.584 4.639 C 45.598 4.829,45.548 4.946,45.472 4.899 C 45.396 4.852,45.333 5.042,45.333 5.321 C 45.333 5.809,45.220 6.415,44.810 8.125 C 44.706 8.560,44.601 9.117,44.578 9.361 C 44.554 9.605,44.453 10.055,44.353 10.361 C 44.252 10.667,44.151 11.303,44.127 11.775 C 44.103 12.247,44.027 12.599,43.958 12.557 C 43.890 12.515,43.833 12.742,43.833 13.063 C 43.833 13.383,43.752 13.856,43.653 14.114 C 43.448 14.647,43.175 16.073,43.076 17.128 C 43.039 17.519,42.941 17.969,42.858 18.128 C 42.774 18.287,42.664 18.774,42.612 19.210 C 42.560 19.647,42.478 20.068,42.429 20.147 C 42.380 20.225,42.293 20.693,42.234 21.187 C 42.175 21.680,42.061 22.210,41.980 22.364 C 41.782 22.742,41.795 22.877,42.017 22.740 C 42.145 22.661,42.143 22.733,42.010 22.982 C 41.799 23.376,41.236 25.885,41.101 27.035 C 41.053 27.443,40.936 27.981,40.840 28.232 C 40.745 28.483,40.661 28.927,40.654 29.219 C 40.637 29.945,40.289 30.850,40.083 30.703 C 39.901 30.572,39.836 30.352,39.756 29.588 C 39.676 28.830,39.455 27.948,38.814 25.836 C 38.690 25.425,38.610 24.957,38.638 24.795 C 38.665 24.633,38.627 24.500,38.552 24.500 C 38.478 24.500,38.395 24.182,38.368 23.795 C 38.341 23.407,38.210 22.871,38.076 22.603 C 37.943 22.335,37.833 21.978,37.833 21.810 C 37.833 21.410,37.451 19.940,37.320 19.833 C 37.263 19.787,37.213 19.637,37.208 19.500 C 37.185 18.867,36.999 17.986,36.774 17.449 C 36.639 17.125,36.570 16.819,36.620 16.769 C 36.670 16.719,36.609 16.431,36.484 16.130 C 36.359 15.829,36.279 15.452,36.306 15.292 C 36.332 15.131,36.290 15.000,36.211 15.000 C 36.133 15.000,36.050 14.728,36.027 14.395 C 36.005 14.063,35.877 13.529,35.743 13.208 C 35.610 12.888,35.500 12.423,35.500 12.174 C 35.500 11.926,35.447 11.669,35.383 11.605 C 35.318 11.540,35.243 11.284,35.216 11.035 C 35.163 10.542,35.003 9.910,34.575 8.500 C 34.422 7.996,34.270 7.433,34.237 7.250 C 34.068 6.321,33.823 5.179,33.664 4.583 C 33.567 4.217,33.467 3.825,33.443 3.713 C 33.418 3.601,33.346 3.457,33.283 3.394 C 33.219 3.330,33.167 3.047,33.167 2.764 L 33.167 2.250 28.375 2.333 L 23.583 2.417 23.533 2.917 C 23.505 3.192,23.368 3.666,23.228 3.970 C 23.088 4.274,23.015 4.631,23.065 4.763 C 23.116 4.895,23.077 5.208,22.979 5.460 C 22.758 6.028,22.378 7.498,22.365 7.833 C 22.352 8.193,21.820 10.198,21.647 10.539 C 21.566 10.699,21.500 11.088,21.500 11.405 C 21.500 11.721,21.421 12.029,21.324 12.089 C 21.227 12.149,21.177 12.322,21.211 12.474 C 21.246 12.626,21.134 13.118,20.962 13.568 C 20.791 14.017,20.686 14.477,20.729 14.589 C 20.772 14.700,20.698 15.002,20.565 15.259 C 20.431 15.516,20.336 15.844,20.353 15.988 C 20.371 16.132,20.340 16.362,20.285 16.500 C 20.164 16.806,19.681 18.674,19.489 19.583 C 19.411 19.950,19.238 20.662,19.104 21.165 C 18.921 21.854,18.909 22.112,19.056 22.205 C 19.193 22.292,19.180 22.329,19.014 22.331 C 18.884 22.332,18.821 22.377,18.875 22.430 C 18.928 22.484,18.863 22.787,18.731 23.104 C 18.598 23.422,18.534 23.753,18.588 23.841 C 18.642 23.928,18.622 24.000,18.544 24.000 C 18.407 24.000,18.035 25.475,17.955 26.333 C 17.934 26.563,17.859 26.793,17.787 26.846 C 17.716 26.898,17.626 27.192,17.588 27.499 C 17.549 27.805,17.445 28.250,17.356 28.486 C 17.268 28.723,17.099 29.385,16.980 29.958 C 16.734 31.147,16.558 31.277,16.417 30.375 C 16.364 30.031,16.235 29.450,16.131 29.083 C 16.026 28.717,15.958 28.292,15.979 28.140 C 15.999 27.987,15.937 27.814,15.841 27.755 C 15.745 27.696,15.667 27.394,15.667 27.084 C 15.667 26.775,15.584 26.311,15.483 26.053 C 15.382 25.794,15.265 25.358,15.222 25.083 C 15.179 24.808,14.999 23.992,14.822 23.269 C 14.645 22.546,14.500 21.810,14.500 21.634 C 14.500 21.434,14.428 21.358,14.308 21.433 C 14.194 21.503,14.160 21.479,14.226 21.373 C 14.286 21.275,14.219 20.719,14.076 20.139 C 13.934 19.558,13.779 18.858,13.733 18.583 C 13.687 18.308,13.571 17.836,13.475 17.534 C 13.380 17.231,13.281 16.819,13.255 16.617 C 13.228 16.415,13.123 16.039,13.020 15.781 C 12.917 15.523,12.833 15.096,12.833 14.832 C 12.833 14.569,12.758 14.307,12.667 14.250 C 12.575 14.193,12.497 13.908,12.493 13.615 C 12.483 12.834,12.094 11.295,11.944 11.445 C 11.874 11.515,11.863 11.450,11.921 11.300 C 11.978 11.149,11.949 10.883,11.856 10.709 C 11.762 10.534,11.643 10.034,11.591 9.597 C 11.538 9.160,11.424 8.669,11.337 8.507 C 11.250 8.344,11.210 8.179,11.248 8.141 C 11.286 8.103,11.130 7.362,10.902 6.494 C 10.674 5.627,10.458 4.767,10.422 4.583 C 10.387 4.400,10.314 4.025,10.260 3.750 C 10.207 3.475,10.114 3.063,10.054 2.833 C 9.994 2.604,9.951 2.379,9.959 2.333 C 9.966 2.287,7.743 2.250,5.018 2.250 C 0.223 2.250,0.064 2.260,0.040 2.576 M69.013 12.017 C 68.425 12.091,67.825 12.205,67.680 12.269 C 67.535 12.332,67.229 12.415,67.000 12.452 C 65.875 12.633,63.964 13.474,64.116 13.720 C 64.172 13.811,64.137 13.835,64.038 13.774 C 63.832 13.646,63.000 13.983,63.000 14.193 C 63.000 14.270,62.887 14.333,62.750 14.333 C 62.612 14.333,62.500 14.397,62.500 14.474 C 62.500 14.551,62.242 14.753,61.927 14.923 C 61.612 15.093,61.391 15.292,61.437 15.366 C 61.482 15.440,61.441 15.500,61.345 15.500 C 61.081 15.500,60.505 16.040,60.602 16.196 C 60.648 16.272,60.569 16.333,60.427 16.333 C 60.284 16.333,60.167 16.398,60.167 16.477 C 60.167 16.556,59.938 16.908,59.659 17.260 C 59.380 17.611,59.036 18.165,58.894 18.491 C 58.753 18.817,58.527 19.290,58.392 19.542 C 58.258 19.794,58.199 20.000,58.261 20.000 C 58.323 20.000,58.282 20.112,58.168 20.248 C 58.055 20.384,58.008 20.613,58.063 20.757 C 58.118 20.900,58.097 20.977,58.016 20.927 C 57.882 20.844,57.780 21.239,57.591 22.584 C 57.552 22.859,57.442 23.571,57.345 24.167 C 57.125 25.522,57.117 27.657,57.327 28.844 C 57.415 29.342,57.525 30.093,57.570 30.513 C 57.616 30.933,57.722 31.458,57.807 31.680 C 57.891 31.902,57.961 32.121,57.962 32.167 C 57.972 32.496,58.373 33.672,58.505 33.753 C 58.594 33.808,58.667 33.999,58.667 34.177 C 58.667 34.354,58.737 34.500,58.822 34.500 C 58.908 34.500,59.031 34.667,59.096 34.872 C 59.264 35.403,60.184 36.683,60.732 37.149 C 60.905 37.296,61.243 37.609,61.482 37.843 C 62.370 38.715,64.072 39.745,64.346 39.576 C 64.435 39.520,64.488 39.560,64.462 39.664 C 64.394 39.946,67.342 40.918,68.917 41.133 C 70.841 41.395,75.994 41.228,77.194 40.863 C 79.891 40.043,81.713 39.255,82.039 38.767 C 82.108 38.664,82.163 38.656,82.164 38.748 C 82.166 38.839,82.357 38.708,82.590 38.457 C 82.823 38.205,83.090 38.000,83.183 38.000 C 83.277 38.000,83.312 37.934,83.262 37.852 C 83.211 37.771,83.319 37.666,83.501 37.618 C 83.683 37.570,83.889 37.379,83.958 37.192 C 84.027 37.006,84.158 36.830,84.250 36.802 C 84.342 36.773,84.398 36.694,84.375 36.625 C 84.352 36.556,84.450 36.500,84.593 36.500 C 84.736 36.500,84.812 36.433,84.761 36.351 C 84.710 36.269,84.785 36.157,84.928 36.102 C 85.071 36.047,85.141 35.927,85.084 35.835 C 85.027 35.742,85.052 35.667,85.140 35.667 C 85.228 35.667,85.453 35.372,85.641 35.012 C 85.828 34.652,86.056 34.221,86.146 34.054 C 87.801 30.979,87.973 23.409,86.468 19.833 C 86.199 19.193,85.471 17.804,85.333 17.667 C 85.287 17.621,85.144 17.378,85.014 17.127 C 84.703 16.523,83.019 14.833,82.728 14.833 C 82.603 14.833,82.500 14.761,82.500 14.674 C 82.500 14.444,81.041 13.622,80.847 13.742 C 80.757 13.797,80.602 13.691,80.502 13.505 C 80.403 13.319,80.189 13.167,80.027 13.167 C 79.866 13.167,79.656 13.090,79.562 12.996 C 79.468 12.901,79.160 12.808,78.878 12.787 C 78.597 12.767,78.400 12.694,78.443 12.625 C 78.485 12.556,78.323 12.500,78.082 12.500 C 77.842 12.500,77.494 12.419,77.310 12.321 C 76.611 11.947,71.141 11.747,69.013 12.017 M110.144 12.014 C 110.035 12.081,109.859 12.102,109.751 12.061 C 109.493 11.962,107.333 12.964,107.333 13.183 C 107.333 13.277,107.272 13.315,107.197 13.269 C 107.122 13.222,106.863 13.368,106.621 13.592 C 106.379 13.817,106.124 14.000,106.055 14.000 C 105.457 14.000,102.740 17.497,101.564 19.780 L 100.667 21.522 100.659 20.720 C 100.643 19.124,100.233 14.243,100.096 14.021 C 100.046 13.939,99.991 13.530,99.975 13.112 L 99.947 12.353 95.381 12.338 L 90.816 12.324 90.905 13.287 C 90.955 13.817,91.036 14.958,91.085 15.823 C 91.135 16.688,91.218 17.562,91.269 17.767 C 91.395 18.270,91.444 21.644,91.474 31.958 L 91.500 40.667 96.083 40.667 L 100.667 40.667 100.686 38.958 C 100.754 32.843,101.288 27.421,101.855 27.070 C 101.935 27.021,102.000 26.760,102.000 26.490 C 102.000 26.221,102.075 26.000,102.167 26.000 C 102.258 26.000,102.333 25.876,102.333 25.724 C 102.333 25.572,102.525 25.197,102.758 24.891 C 102.992 24.584,103.124 24.331,103.050 24.328 C 102.977 24.325,103.049 24.246,103.212 24.151 C 103.374 24.057,103.480 23.928,103.447 23.865 C 103.413 23.802,103.524 23.619,103.693 23.458 C 103.862 23.298,104.000 23.223,104.000 23.292 C 104.000 23.360,104.169 23.221,104.375 22.982 C 104.581 22.743,104.920 22.494,105.127 22.429 C 105.343 22.360,105.456 22.231,105.392 22.126 C 105.321 22.012,105.375 21.980,105.537 22.042 C 105.679 22.097,105.943 22.038,106.123 21.912 C 106.303 21.785,106.631 21.648,106.851 21.607 C 107.070 21.566,107.438 21.490,107.667 21.438 C 108.231 21.309,108.951 21.204,110.891 20.968 L 112.532 20.768 112.447 17.926 C 112.401 16.362,112.312 14.821,112.249 14.500 C 112.186 14.179,112.117 13.635,112.094 13.292 C 112.072 12.948,112.042 12.475,112.027 12.242 C 111.999 11.809,110.725 11.655,110.144 12.014 M244.333 11.977 C 243.921 12.044,243.433 12.183,243.250 12.286 C 243.067 12.388,242.674 12.562,242.377 12.672 C 242.080 12.782,241.879 12.938,241.929 13.019 C 241.979 13.100,241.874 13.167,241.697 13.167 C 241.322 13.167,240.946 13.551,241.126 13.750 C 241.194 13.825,241.153 13.831,241.035 13.763 C 240.653 13.543,237.598 17.270,237.581 17.978 C 237.579 18.036,237.519 18.177,237.446 18.292 C 237.373 18.406,237.367 18.587,237.433 18.692 C 237.503 18.806,237.479 18.840,237.373 18.774 C 237.266 18.708,237.147 18.878,237.078 19.193 C 236.893 20.035,236.645 19.366,236.650 18.038 C 236.652 17.421,236.574 16.450,236.477 15.880 C 236.380 15.310,236.282 14.448,236.258 13.964 C 236.234 13.480,236.204 12.915,236.191 12.708 L 236.167 12.333 231.584 12.333 L 227.002 12.333 227.067 12.875 C 227.157 13.616,227.308 15.434,227.439 17.333 C 227.499 18.204,227.569 19.104,227.594 19.333 C 227.619 19.563,227.646 27.269,227.653 36.458 L 227.667 53.167 232.250 53.167 L 236.833 53.167 236.833 47.250 L 236.833 41.333 238.375 41.323 C 239.223 41.317,240.179 41.277,240.500 41.235 C 240.821 41.192,241.342 41.158,241.657 41.158 C 241.973 41.159,242.686 41.039,243.241 40.893 C 243.796 40.746,244.362 40.609,244.500 40.589 C 245.224 40.481,245.833 40.274,245.833 40.136 C 245.833 40.050,245.890 40.016,245.960 40.059 C 246.030 40.102,246.348 40.019,246.668 39.875 C 246.988 39.731,247.287 39.599,247.333 39.583 C 248.111 39.304,248.659 38.956,248.563 38.800 C 248.486 38.675,248.539 38.646,248.718 38.715 C 248.885 38.779,249.056 38.708,249.157 38.535 C 249.248 38.378,249.325 38.309,249.328 38.382 C 249.339 38.670,252.000 36.176,252.000 35.877 C 252.000 35.762,252.063 35.667,252.140 35.667 C 252.218 35.667,252.422 35.404,252.595 35.083 C 252.768 34.763,252.975 34.500,253.056 34.500 C 253.136 34.500,253.162 34.394,253.112 34.264 C 253.062 34.134,253.135 33.984,253.274 33.930 C 253.414 33.877,253.497 33.740,253.459 33.626 C 253.421 33.513,253.490 33.320,253.612 33.198 C 253.734 33.076,253.833 32.836,253.833 32.665 C 253.833 32.493,253.910 32.306,254.003 32.248 C 254.096 32.191,254.129 32.074,254.076 31.988 C 254.023 31.903,254.066 31.833,254.171 31.833 C 254.275 31.833,254.328 31.740,254.287 31.625 C 254.246 31.510,254.301 31.229,254.409 31.000 C 254.517 30.771,254.595 30.471,254.583 30.333 C 254.571 30.196,254.625 29.952,254.703 29.792 C 255.073 29.031,255.282 23.364,255.015 21.333 C 254.728 19.147,254.639 18.667,254.523 18.666 C 254.465 18.666,254.400 18.431,254.380 18.143 C 254.360 17.856,254.243 17.500,254.120 17.352 C 253.893 17.078,253.425 16.083,253.523 16.083 C 253.636 16.083,252.968 15.224,252.071 14.215 C 251.559 13.638,251.039 13.167,250.917 13.167 C 250.795 13.167,250.669 13.110,250.639 13.042 C 250.266 12.203,246.680 11.598,244.333 11.977 M354.163 11.889 C 354.115 11.939,353.665 11.997,353.163 12.018 C 352.661 12.038,352.100 12.112,351.917 12.182 C 351.733 12.252,350.983 12.439,350.250 12.597 C 349.517 12.755,348.842 12.959,348.750 13.050 C 348.639 13.160,348.662 13.171,348.817 13.082 C 348.964 12.999,349.012 13.013,348.945 13.121 C 348.886 13.216,348.687 13.333,348.502 13.381 C 348.295 13.435,348.207 13.403,348.273 13.296 C 348.392 13.103,348.393 13.103,347.292 13.646 C 346.856 13.861,346.500 14.103,346.500 14.185 C 346.500 14.267,346.331 14.334,346.125 14.336 C 345.822 14.338,345.798 14.369,346.000 14.500 C 346.222 14.644,346.222 14.664,346.000 14.683 C 345.863 14.695,345.637 14.715,345.500 14.728 C 345.363 14.740,345.275 14.862,345.306 15.000 C 345.336 15.137,345.307 15.196,345.242 15.131 C 345.073 14.962,344.470 15.316,344.591 15.512 C 344.646 15.602,344.630 15.655,344.554 15.630 C 344.478 15.606,344.149 15.847,343.822 16.168 C 343.100 16.876,342.092 18.167,342.262 18.167 C 342.330 18.167,342.249 18.317,342.083 18.500 C 341.917 18.683,341.836 18.833,341.903 18.833 C 341.969 18.833,341.913 18.944,341.778 19.079 C 341.643 19.214,341.330 19.870,341.083 20.537 C 340.836 21.204,340.533 21.977,340.410 22.255 C 340.287 22.533,340.209 22.908,340.238 23.089 C 340.267 23.269,340.246 23.492,340.191 23.583 C 339.510 24.734,339.591 31.282,340.321 34.068 C 340.511 34.793,340.667 35.417,340.667 35.453 C 340.667 35.490,340.753 35.466,340.859 35.401 C 340.968 35.334,341.007 35.354,340.949 35.448 C 340.379 36.370,342.941 39.547,345.083 40.575 C 346.746 41.374,350.678 41.603,351.379 40.942 C 351.491 40.837,351.771 40.724,352.000 40.693 C 352.229 40.661,352.535 40.530,352.680 40.401 C 352.825 40.272,352.994 40.216,353.055 40.277 C 353.117 40.339,353.167 40.301,353.167 40.194 C 353.167 40.088,353.279 40.000,353.417 40.000 C 353.554 40.000,353.667 39.930,353.667 39.845 C 353.667 39.759,353.818 39.641,354.002 39.583 C 354.187 39.524,354.295 39.406,354.243 39.321 C 354.190 39.236,354.264 39.167,354.407 39.167 C 354.550 39.167,354.667 39.050,354.667 38.907 C 354.667 38.764,354.726 38.683,354.798 38.728 C 354.937 38.814,356.271 37.069,356.220 36.868 C 356.204 36.803,356.299 36.689,356.432 36.615 C 356.565 36.540,356.630 36.409,356.577 36.323 C 356.524 36.237,356.558 36.167,356.652 36.167 C 356.820 36.167,357.459 34.916,357.802 33.917 C 357.931 33.542,357.977 34.328,357.987 37.042 L 358.000 40.667 362.583 40.667 L 367.167 40.667 367.167 26.519 L 367.167 12.372 366.208 12.245 C 364.472 12.016,354.329 11.716,354.163 11.889 M389.125 11.943 C 388.781 11.986,388.500 12.091,388.500 12.177 C 388.500 12.263,388.442 12.315,388.372 12.292 C 387.953 12.156,385.768 13.426,385.940 13.705 C 386.006 13.811,385.974 13.837,385.861 13.767 C 385.751 13.699,385.389 13.936,385.008 14.325 C 384.644 14.696,384.384 15.000,384.431 15.000 C 384.477 15.000,384.330 15.185,384.104 15.411 C 383.878 15.638,383.644 15.975,383.585 16.161 C 383.526 16.348,383.408 16.500,383.322 16.500 C 383.237 16.500,383.165 16.594,383.163 16.708 C 383.161 16.823,383.013 17.104,382.833 17.333 C 382.654 17.563,382.506 17.881,382.504 18.042 C 382.502 18.202,382.435 18.333,382.356 18.333 C 382.277 18.333,382.097 18.615,381.955 18.958 L 381.699 19.583 381.683 18.698 C 381.674 18.212,381.610 17.848,381.542 17.891 C 381.473 17.933,381.410 17.694,381.402 17.359 C 381.354 15.444,381.297 14.628,381.135 13.542 L 380.954 12.333 376.488 12.333 C 371.755 12.333,371.438 12.392,371.924 13.179 C 371.986 13.279,372.059 13.673,372.085 14.055 C 372.112 14.437,372.191 15.463,372.261 16.333 C 372.447 18.635,372.442 18.133,372.472 36.375 L 372.500 53.167 377.083 53.167 L 381.667 53.167 381.667 47.250 L 381.667 41.333 383.583 41.333 C 384.637 41.333,385.500 41.272,385.500 41.197 C 385.500 41.122,385.819 41.088,386.208 41.121 C 386.844 41.175,390.448 40.409,390.667 40.173 C 390.712 40.124,390.900 40.059,391.083 40.028 C 391.610 39.941,393.333 39.136,393.333 38.977 C 393.333 38.898,393.427 38.832,393.542 38.831 C 393.898 38.827,396.833 36.266,396.833 35.960 C 396.833 35.890,396.986 35.681,397.173 35.494 C 397.359 35.307,397.460 35.071,397.397 34.968 C 397.327 34.855,397.357 34.828,397.474 34.901 C 397.586 34.970,397.667 34.917,397.667 34.774 C 397.667 34.638,397.745 34.502,397.841 34.470 C 397.936 34.438,398.027 34.249,398.042 34.051 C 398.057 33.852,398.118 33.720,398.177 33.756 C 398.236 33.793,398.472 33.319,398.700 32.703 C 399.389 30.849,399.527 30.345,399.401 30.142 C 399.329 30.026,399.354 29.993,399.464 30.061 C 399.571 30.127,399.642 30.052,399.635 29.879 C 399.622 29.531,399.814 28.499,399.925 28.320 C 399.967 28.251,399.908 28.157,399.793 28.111 C 399.626 28.044,399.626 28.024,399.792 28.013 C 400.056 27.996,400.080 21.593,399.820 20.583 C 399.726 20.217,399.627 19.729,399.600 19.500 C 399.574 19.271,399.540 18.985,399.526 18.865 C 399.512 18.745,399.426 18.693,399.335 18.749 C 399.240 18.807,399.213 18.740,399.271 18.590 C 399.326 18.446,399.288 18.229,399.187 18.108 C 399.086 17.986,399.049 17.840,399.105 17.784 C 399.161 17.728,399.084 17.560,398.935 17.411 C 398.786 17.262,398.701 17.079,398.748 17.004 C 398.893 16.769,397.592 14.667,397.301 14.667 C 397.216 14.667,397.193 14.592,397.250 14.500 C 397.307 14.408,397.273 14.333,397.175 14.333 C 397.078 14.333,396.830 14.138,396.624 13.899 C 396.059 13.243,394.848 12.459,394.566 12.567 C 394.428 12.620,394.355 12.600,394.403 12.522 C 394.672 12.086,391.129 11.698,389.125 11.943 M195.013 22.208 C 195.032 31.305,195.122 33.561,195.502 34.500 C 195.549 34.616,195.604 35.012,195.638 35.468 C 195.656 35.712,195.737 35.810,195.859 35.734 C 195.974 35.663,196.006 35.688,195.940 35.795 C 195.801 36.020,196.121 36.788,196.573 37.319 C 196.788 37.570,196.823 37.674,196.667 37.598 C 196.512 37.522,196.527 37.566,196.706 37.712 C 196.865 37.843,196.946 37.998,196.886 38.058 C 196.827 38.118,196.878 38.167,197.000 38.167 C 197.122 38.167,197.173 38.216,197.113 38.276 C 197.053 38.335,197.243 38.560,197.535 38.776 C 197.826 38.991,197.994 39.168,197.907 39.169 C 197.377 39.178,199.316 40.468,200.078 40.613 C 200.258 40.648,200.592 40.798,200.820 40.947 C 201.506 41.397,205.501 41.350,206.667 40.878 C 207.894 40.382,208.167 40.249,208.167 40.144 C 208.167 40.085,208.352 39.990,208.579 39.933 C 208.805 39.876,209.070 39.680,209.168 39.498 C 209.265 39.316,209.474 39.166,209.631 39.164 C 209.876 39.162,209.881 39.139,209.667 39.000 C 209.529 38.911,209.497 38.837,209.595 38.836 C 209.896 38.832,210.833 37.904,210.833 37.610 C 210.833 37.458,210.946 37.333,211.083 37.333 C 211.242 37.333,211.338 37.165,211.346 36.875 C 211.354 36.623,211.400 36.517,211.449 36.640 C 211.511 36.797,211.604 36.748,211.762 36.473 C 212.046 35.978,212.372 35.299,212.428 35.083 C 212.452 34.992,212.625 34.617,212.813 34.250 L 213.153 33.583 213.160 37.125 L 213.167 40.667 217.750 40.667 L 222.333 40.667 222.333 26.500 L 222.333 12.333 217.776 12.333 L 213.218 12.333 213.092 15.292 C 213.023 16.919,212.936 18.992,212.899 19.900 C 212.861 20.807,212.790 21.744,212.740 21.983 C 212.690 22.221,212.619 22.887,212.582 23.462 C 212.546 24.036,212.476 24.570,212.428 24.648 C 212.380 24.726,212.295 25.193,212.238 25.687 C 212.182 26.180,212.031 26.905,211.901 27.297 C 211.772 27.690,211.667 28.135,211.667 28.286 C 211.667 28.704,210.861 31.008,210.485 31.667 C 210.407 31.804,210.222 32.155,210.075 32.445 C 209.928 32.736,209.701 33.015,209.570 33.065 C 209.440 33.115,209.333 33.275,209.333 33.421 C 209.333 33.567,209.258 33.640,209.167 33.583 C 209.075 33.527,209.000 33.555,209.000 33.646 C 209.000 33.736,208.850 33.858,208.668 33.916 C 208.485 33.974,208.222 34.135,208.084 34.273 C 207.946 34.411,207.833 34.443,207.833 34.345 C 207.833 34.242,207.484 34.167,207.010 34.167 C 206.557 34.167,206.137 34.087,206.076 33.989 C 206.016 33.891,205.861 33.851,205.733 33.900 C 205.605 33.949,205.500 33.891,205.500 33.771 C 205.500 33.650,205.350 33.415,205.166 33.249 C 204.982 33.083,204.867 32.911,204.910 32.868 C 204.953 32.825,204.900 32.631,204.792 32.436 C 204.684 32.242,204.616 32.016,204.640 31.933 C 204.664 31.851,204.632 31.664,204.568 31.517 C 204.362 31.036,204.354 30.673,204.345 21.458 L 204.337 12.333 199.665 12.333 L 194.993 12.333 195.013 22.208 M288.757 12.489 C 288.701 12.579,288.775 13.020,288.922 13.469 C 289.069 13.917,289.207 14.406,289.229 14.554 C 289.250 14.702,289.320 14.876,289.384 14.940 C 289.448 15.003,289.500 15.293,289.500 15.583 C 289.500 15.874,289.553 16.164,289.617 16.229 C 289.682 16.293,289.762 16.548,289.795 16.795 C 289.828 17.042,289.906 17.283,289.969 17.330 C 290.032 17.378,290.099 17.529,290.119 17.667 C 290.213 18.321,290.506 19.542,290.611 19.712 C 290.676 19.816,290.751 20.105,290.778 20.353 C 290.805 20.601,290.934 21.129,291.063 21.527 C 291.193 21.925,291.396 22.644,291.514 23.125 C 291.633 23.606,291.795 24.000,291.875 24.000 C 291.954 24.000,291.972 24.076,291.915 24.170 C 291.857 24.263,291.905 24.620,292.022 24.962 C 292.139 25.304,292.216 25.651,292.193 25.733 C 292.169 25.816,292.203 26.003,292.267 26.150 C 292.331 26.297,292.404 26.512,292.428 26.630 C 292.506 27.009,293.011 28.736,293.194 29.250 C 293.292 29.525,293.393 29.947,293.418 30.188 C 293.462 30.609,293.714 31.490,294.021 32.300 C 294.101 32.510,294.167 32.833,294.167 33.018 C 294.167 33.242,294.236 33.311,294.375 33.228 C 294.540 33.129,294.541 33.155,294.379 33.355 C 294.258 33.504,294.236 33.671,294.323 33.762 C 294.405 33.847,294.516 34.204,294.571 34.555 C 294.625 34.906,294.744 35.332,294.835 35.502 C 294.926 35.672,295.000 35.999,295.000 36.229 C 295.000 36.459,295.075 36.693,295.167 36.750 C 295.258 36.807,295.333 37.074,295.333 37.343 C 295.333 37.613,295.390 37.833,295.458 37.834 C 295.527 37.834,295.599 38.059,295.618 38.333 C 295.637 38.608,295.769 39.173,295.910 39.589 C 296.051 40.005,296.167 40.484,296.167 40.655 C 296.167 40.825,296.285 41.010,296.430 41.066 C 296.914 41.251,303.500 41.181,303.500 40.990 C 303.500 40.893,303.576 40.861,303.669 40.918 C 303.891 41.055,305.678 40.669,306.000 40.415 C 306.304 40.174,306.869 39.937,307.046 39.975 C 307.118 39.990,307.219 39.890,307.272 39.752 C 307.326 39.613,307.445 39.500,307.537 39.500 C 308.192 39.500,309.894 36.866,310.120 35.504 C 310.157 35.277,310.250 35.015,310.325 34.921 C 310.400 34.827,310.516 34.487,310.583 34.167 C 310.650 33.846,310.774 33.497,310.859 33.392 C 310.943 33.287,310.977 33.004,310.933 32.764 C 310.888 32.515,310.922 32.368,311.010 32.423 C 311.096 32.476,311.176 32.421,311.188 32.302 C 311.250 31.666,311.313 31.374,311.477 30.958 C 311.577 30.706,311.626 30.500,311.587 30.500 C 311.547 30.500,311.630 30.181,311.771 29.792 C 312.033 29.064,312.199 28.409,312.214 28.042 C 312.218 27.927,312.293 27.833,312.381 27.833 C 312.468 27.833,312.506 27.661,312.465 27.450 C 312.425 27.238,312.491 26.973,312.613 26.860 C 312.734 26.746,312.833 26.428,312.833 26.152 C 312.833 25.876,312.947 25.430,313.087 25.160 C 313.226 24.891,313.339 24.632,313.337 24.585 C 313.319 24.138,313.358 24.000,313.500 24.000 C 313.592 24.000,313.667 24.150,313.667 24.333 C 313.667 24.517,313.723 24.667,313.792 24.667 C 313.860 24.668,313.931 24.939,313.948 25.270 C 313.965 25.601,314.032 25.994,314.098 26.144 C 314.163 26.294,314.244 26.561,314.278 26.737 C 314.312 26.913,314.413 27.145,314.502 27.252 C 314.591 27.360,314.632 27.479,314.593 27.518 C 314.554 27.557,314.671 28.113,314.854 28.753 C 315.036 29.393,315.192 30.029,315.199 30.167 C 315.206 30.304,315.267 30.492,315.333 30.583 C 315.456 30.752,315.687 31.542,315.748 32.000 C 315.793 32.333,316.478 34.806,316.672 35.333 C 316.756 35.563,316.859 35.955,316.901 36.206 C 316.943 36.456,317.031 36.749,317.098 36.856 C 317.164 36.964,317.241 37.209,317.268 37.401 C 317.362 38.054,317.860 39.749,318.000 39.895 C 318.078 39.975,318.101 40.145,318.052 40.272 C 318.003 40.400,318.045 40.604,318.147 40.726 C 318.248 40.848,318.276 41.002,318.209 41.069 C 318.058 41.220,325.564 41.100,326.250 40.941 C 327.361 40.683,328.500 40.279,328.500 40.144 C 328.500 40.065,328.612 40.000,328.750 40.000 C 328.887 40.000,329.000 39.929,329.000 39.842 C 329.000 39.756,329.206 39.582,329.458 39.456 C 329.710 39.331,329.896 39.133,329.871 39.018 C 329.846 38.903,329.894 38.851,329.978 38.903 C 330.149 39.009,331.107 37.877,331.042 37.646 C 331.019 37.566,331.066 37.500,331.148 37.500 C 331.309 37.500,331.819 36.508,331.916 36.005 C 331.949 35.831,332.060 35.532,332.163 35.341 C 332.265 35.150,332.296 34.908,332.232 34.804 C 332.165 34.695,332.189 34.661,332.289 34.723 C 332.444 34.819,332.695 34.081,332.762 33.333 C 332.774 33.196,332.873 32.866,332.981 32.600 C 333.089 32.334,333.148 32.034,333.112 31.933 C 333.075 31.832,333.160 31.525,333.299 31.250 C 333.566 30.724,333.821 29.866,333.920 29.167 C 333.952 28.938,334.053 28.525,334.144 28.250 C 334.441 27.355,335.137 24.929,335.244 24.417 C 335.564 22.876,335.679 22.434,335.805 22.268 C 335.881 22.166,336.040 21.633,336.157 21.083 C 336.274 20.533,336.411 19.971,336.460 19.833 C 336.510 19.696,336.579 19.396,336.613 19.167 C 336.646 18.938,336.742 18.600,336.824 18.417 C 337.090 17.827,338.021 14.289,338.059 13.724 C 338.072 13.527,338.131 13.395,338.189 13.431 C 338.318 13.510,338.501 12.636,338.392 12.459 C 338.290 12.295,329.158 12.294,329.193 12.458 C 329.208 12.527,329.176 12.696,329.122 12.833 C 329.069 12.971,328.988 13.308,328.942 13.583 C 328.854 14.121,328.772 14.438,328.622 14.833 C 328.570 14.971,328.368 15.758,328.173 16.583 C 327.978 17.408,327.744 18.366,327.652 18.712 C 327.560 19.057,327.537 19.425,327.601 19.529 C 327.666 19.633,327.645 19.673,327.555 19.617 C 327.461 19.559,327.293 19.994,327.161 20.633 C 326.882 21.991,326.924 21.832,326.717 22.333 C 326.544 22.753,326.284 24.132,326.262 24.750 C 326.255 24.933,326.194 25.125,326.126 25.176 C 326.058 25.227,325.930 25.602,325.841 26.009 C 325.753 26.417,325.520 27.387,325.324 28.167 C 325.128 28.946,324.903 29.846,324.824 30.167 C 324.354 32.073,324.209 32.289,324.056 31.307 C 324.008 31.001,323.890 30.654,323.794 30.538 C 323.698 30.421,323.663 30.282,323.716 30.229 C 323.769 30.176,323.743 29.951,323.658 29.729 C 323.574 29.506,323.473 29.158,323.434 28.954 C 323.396 28.750,323.272 28.358,323.160 28.083 C 323.048 27.808,322.936 27.433,322.912 27.250 C 322.823 26.587,322.236 24.486,322.161 24.562 C 322.118 24.604,322.070 24.476,322.054 24.278 C 322.002 23.654,321.398 21.658,321.292 21.763 C 321.237 21.819,321.214 21.726,321.241 21.557 C 321.268 21.388,321.247 21.176,321.195 21.086 C 321.142 20.996,321.081 20.809,321.058 20.670 C 320.943 19.954,320.562 18.660,320.489 18.733 C 320.443 18.780,320.392 18.690,320.377 18.534 C 320.263 17.392,319.966 16.335,319.789 16.444 C 319.683 16.509,319.665 16.470,319.744 16.343 C 319.815 16.229,319.793 15.973,319.695 15.776 C 319.597 15.578,319.393 14.835,319.242 14.124 C 319.090 13.414,318.898 12.790,318.814 12.738 C 318.730 12.686,318.704 12.574,318.757 12.488 C 318.816 12.394,316.799 12.333,313.597 12.333 L 308.342 12.333 308.086 12.828 C 307.945 13.101,307.846 13.382,307.866 13.453 C 307.885 13.525,307.804 13.974,307.686 14.450 C 307.567 14.927,307.519 15.396,307.578 15.492 C 307.638 15.588,307.599 15.667,307.492 15.667 C 307.385 15.667,307.342 15.783,307.397 15.925 C 307.454 16.074,307.426 16.141,307.331 16.082 C 307.176 15.986,307.097 16.275,307.127 16.825 C 307.135 16.958,307.038 17.266,306.912 17.509 C 306.787 17.752,306.693 18.093,306.705 18.267 C 306.716 18.441,306.631 18.868,306.514 19.215 C 306.398 19.563,306.346 19.960,306.400 20.099 C 306.453 20.237,306.434 20.312,306.357 20.265 C 306.198 20.166,305.806 21.321,305.931 21.523 C 305.976 21.596,305.893 21.891,305.745 22.177 C 305.597 22.463,305.518 22.807,305.570 22.942 C 305.622 23.077,305.548 23.412,305.407 23.686 C 305.265 23.960,305.127 24.431,305.100 24.734 C 305.073 25.036,304.997 25.370,304.932 25.475 C 304.867 25.580,304.867 25.753,304.933 25.859 C 305.002 25.971,304.979 26.007,304.877 25.944 C 304.773 25.879,304.662 26.087,304.602 26.460 C 304.546 26.803,304.460 27.337,304.411 27.648 C 304.361 27.959,304.256 28.334,304.178 28.481 C 304.056 28.710,303.762 29.836,303.390 31.500 C 303.275 32.015,302.821 30.869,302.500 29.250 C 302.391 28.700,302.221 28.063,302.123 27.833 C 302.024 27.604,301.929 27.145,301.912 26.814 C 301.894 26.482,301.828 26.127,301.765 26.024 C 301.588 25.737,301.123 23.955,301.136 23.611 C 301.143 23.443,301.067 23.106,300.969 22.861 C 300.870 22.617,300.773 22.267,300.753 22.083 C 300.703 21.634,300.332 20.201,300.105 19.583 C 300.003 19.308,299.938 19.029,299.959 18.962 C 300.001 18.830,299.730 17.646,299.205 15.667 C 299.023 14.979,298.775 13.952,298.655 13.384 L 298.435 12.352 293.647 12.338 C 290.667 12.330,288.820 12.387,288.757 12.489 M258.448 13.792 C 258.406 13.952,258.372 13.821,258.372 13.500 C 258.372 13.179,258.406 13.048,258.448 13.208 C 258.490 13.369,258.490 13.631,258.448 13.792 M74.817 19.393 C 75.269 19.620,75.683 19.762,75.736 19.708 C 75.790 19.655,75.833 19.699,75.833 19.807 C 75.833 19.915,76.058 20.239,76.334 20.527 C 76.852 21.069,77.333 21.901,77.333 22.255 C 77.333 22.367,77.441 22.549,77.573 22.658 C 77.705 22.768,77.772 22.965,77.722 23.096 C 77.672 23.226,77.686 23.465,77.754 23.625 C 78.179 24.631,78.199 28.368,77.786 29.500 C 77.712 29.702,77.544 30.323,77.424 30.833 C 77.414 30.879,77.311 31.085,77.197 31.292 C 77.082 31.498,77.028 31.667,77.077 31.667 C 77.127 31.667,77.035 31.804,76.875 31.973 C 76.715 32.141,76.472 32.443,76.335 32.643 C 76.034 33.087,74.937 33.833,74.587 33.833 C 74.447 33.833,74.333 33.896,74.333 33.972 C 74.333 34.250,70.892 34.292,70.618 34.018 C 70.516 33.916,70.331 33.833,70.206 33.833 C 70.080 33.833,69.732 33.646,69.433 33.417 C 69.133 33.189,68.845 33.044,68.794 33.095 C 68.742 33.147,68.643 33.097,68.574 32.985 C 68.488 32.846,68.522 32.822,68.683 32.910 C 68.811 32.981,68.710 32.853,68.458 32.625 C 68.206 32.398,68.000 32.126,68.000 32.022 C 68.000 31.918,67.921 31.833,67.823 31.833 C 67.726 31.833,67.693 31.758,67.750 31.667 C 67.807 31.575,67.774 31.500,67.677 31.500 C 67.579 31.500,67.500 31.322,67.500 31.104 C 67.500 30.886,67.388 30.615,67.252 30.502 C 67.115 30.388,67.046 30.228,67.097 30.145 C 67.148 30.061,67.098 29.714,66.985 29.372 C 66.859 28.990,66.793 27.989,66.815 26.777 C 66.843 25.194,66.807 24.829,66.633 24.934 C 66.469 25.033,66.459 25.006,66.594 24.824 C 66.691 24.691,66.870 24.171,66.993 23.667 C 67.407 21.953,68.999 19.388,69.400 19.789 C 69.455 19.844,69.500 19.806,69.500 19.705 C 69.500 19.604,69.762 19.427,70.083 19.311 C 70.404 19.195,70.667 19.059,70.667 19.008 C 70.666 18.692,74.045 19.005,74.817 19.393 M147.563 19.072 C 148.026 19.164,148.038 19.192,147.924 19.875 C 147.859 20.265,147.772 20.883,147.730 21.250 C 147.689 21.617,147.613 22.029,147.560 22.167 C 147.508 22.304,147.433 22.737,147.394 23.129 C 147.354 23.521,147.244 24.046,147.148 24.296 C 147.052 24.545,146.938 25.044,146.894 25.404 C 146.850 25.764,146.747 26.183,146.665 26.336 C 146.584 26.489,146.521 26.757,146.526 26.932 C 146.531 27.107,146.372 27.662,146.172 28.167 C 145.659 29.460,145.516 29.960,145.626 30.071 C 145.679 30.124,145.627 30.167,145.510 30.167 C 145.393 30.167,145.339 30.274,145.389 30.404 C 145.439 30.535,145.372 30.732,145.240 30.842 C 145.108 30.951,145.000 31.115,145.000 31.206 C 145.000 31.435,143.859 32.987,143.296 33.525 C 143.042 33.768,142.833 33.934,142.833 33.894 C 142.833 33.854,142.678 33.905,142.489 34.006 C 141.832 34.358,140.524 34.275,140.235 33.862 C 140.093 33.660,139.896 33.545,139.796 33.606 C 139.697 33.668,139.662 33.643,139.718 33.551 C 139.775 33.459,139.693 33.241,139.536 33.067 C 139.218 32.714,138.591 31.483,138.635 31.297 C 138.650 31.232,138.577 30.969,138.471 30.714 C 138.366 30.459,138.295 30.185,138.313 30.105 C 138.332 30.025,138.229 29.381,138.085 28.674 C 137.834 27.443,137.731 24.616,137.911 23.917 C 138.282 22.480,138.480 21.964,138.906 21.320 C 139.174 20.915,139.375 20.555,139.353 20.521 C 139.269 20.391,141.180 19.422,142.092 19.132 C 142.770 18.916,146.564 18.875,147.563 19.072 M358.452 19.093 C 358.935 19.171,358.972 19.218,358.837 19.572 C 358.755 19.789,358.692 20.180,358.697 20.441 C 358.702 20.703,358.592 21.367,358.452 21.917 C 358.208 22.877,357.943 24.310,357.911 24.833 C 357.903 24.971,357.810 25.346,357.704 25.667 C 357.599 25.988,357.484 26.438,357.449 26.667 C 357.414 26.896,357.299 27.294,357.193 27.553 C 357.087 27.811,357.000 28.162,357.000 28.334 C 357.000 28.506,356.934 28.688,356.854 28.737 C 356.774 28.787,356.708 29.025,356.708 29.266 C 356.708 29.507,356.607 29.767,356.484 29.843 C 356.361 29.919,356.312 30.034,356.375 30.097 C 356.438 30.161,356.356 30.408,356.191 30.648 C 356.027 30.887,355.770 31.350,355.621 31.675 C 355.471 32.001,355.197 32.405,355.012 32.573 C 354.826 32.741,354.708 32.932,354.749 32.998 C 354.790 33.064,354.634 33.204,354.402 33.310 C 354.151 33.424,354.029 33.579,354.100 33.693 C 354.173 33.812,354.145 33.839,354.026 33.766 C 353.920 33.701,353.833 33.739,353.833 33.851 C 353.833 33.964,353.786 34.008,353.728 33.950 C 353.670 33.892,353.466 33.929,353.274 34.031 C 352.862 34.252,351.528 34.231,351.249 33.999 C 351.141 33.910,350.991 33.892,350.916 33.960 C 350.841 34.028,350.830 33.996,350.892 33.888 C 350.954 33.779,350.801 33.534,350.543 33.332 C 350.290 33.133,350.074 32.902,350.063 32.818 C 350.051 32.735,350.027 32.648,350.008 32.625 C 349.990 32.602,349.951 32.462,349.922 32.313 C 349.893 32.164,349.750 31.789,349.603 31.479 C 349.457 31.170,349.263 30.517,349.171 30.029 C 349.079 29.540,348.956 29.064,348.898 28.970 C 348.664 28.591,348.810 23.531,349.078 22.741 C 350.153 19.575,353.466 18.285,358.452 19.093 M389.054 19.384 C 389.156 19.320,389.181 19.388,389.117 19.556 C 389.058 19.709,389.064 19.834,389.130 19.834 C 389.235 19.835,389.867 20.777,389.912 21.000 C 389.921 21.046,390.022 21.252,390.137 21.458 C 390.251 21.665,390.307 21.833,390.260 21.833 C 390.213 21.833,390.257 22.040,390.357 22.292 C 391.136 24.255,391.262 29.999,390.544 30.864 C 390.340 31.109,390.025 31.856,390.062 32.008 C 390.107 32.199,389.216 32.936,388.458 33.334 C 388.023 33.562,387.667 33.787,387.667 33.833 C 387.667 33.964,387.088 34.015,384.583 34.105 C 381.684 34.209,380.778 34.102,380.915 33.673 C 381.040 33.279,381.184 32.415,381.257 31.624 C 381.289 31.279,381.356 30.932,381.406 30.851 C 381.484 30.724,381.672 29.668,381.926 27.917 C 381.966 27.642,382.072 27.229,382.162 27.000 C 382.251 26.771,382.358 26.384,382.399 26.140 C 382.439 25.896,382.554 25.544,382.653 25.359 C 382.752 25.174,382.833 24.834,382.833 24.604 C 382.833 24.374,382.908 24.140,383.000 24.083 C 383.092 24.027,383.167 23.872,383.167 23.739 C 383.167 23.607,383.342 23.136,383.555 22.693 C 383.769 22.249,383.925 21.755,383.901 21.595 C 383.878 21.434,383.900 21.345,383.952 21.396 C 384.003 21.447,384.260 21.210,384.524 20.870 C 385.722 19.319,386.002 19.134,387.333 19.005 C 388.053 18.936,388.318 18.978,388.567 19.203 C 388.741 19.360,388.960 19.441,389.054 19.384 M243.742 19.193 C 243.976 19.300,244.167 19.487,244.167 19.610 C 244.167 19.733,244.236 19.833,244.321 19.833 C 244.609 19.833,245.635 22.257,245.767 23.250 C 245.803 23.525,245.880 23.863,245.937 24.000 C 246.190 24.613,246.289 28.802,246.070 29.667 C 246.013 29.896,245.957 30.209,245.947 30.363 C 245.937 30.516,245.870 30.606,245.798 30.561 C 245.726 30.517,245.667 30.589,245.667 30.721 C 245.667 31.233,244.386 33.157,244.042 33.163 C 243.927 33.165,243.833 33.229,243.833 33.306 C 243.833 33.382,243.740 33.450,243.625 33.457 C 243.510 33.464,243.008 33.625,242.509 33.816 C 240.635 34.530,235.884 34.312,236.086 33.520 C 236.147 33.280,236.219 32.772,236.246 32.391 C 236.272 32.010,236.341 31.623,236.397 31.531 C 236.499 31.367,236.713 29.918,236.737 29.224 C 236.744 29.027,236.806 28.900,236.875 28.942 C 236.944 28.985,237.013 28.846,237.029 28.635 C 237.044 28.423,237.069 28.137,237.084 28.000 C 237.113 27.739,237.415 26.584,237.665 25.783 C 237.745 25.526,237.782 25.168,237.747 24.987 C 237.713 24.806,237.742 24.693,237.812 24.737 C 237.882 24.780,238.112 24.283,238.321 23.632 C 238.531 22.980,238.843 22.215,239.013 21.932 C 239.184 21.649,239.449 21.194,239.601 20.923 C 239.754 20.651,240.057 20.289,240.274 20.118 C 240.492 19.947,240.620 19.719,240.558 19.612 C 240.497 19.504,240.503 19.468,240.572 19.530 C 240.642 19.592,240.935 19.498,241.224 19.322 C 241.822 18.957,243.083 18.893,243.742 19.193 M348.615 26.458 C 348.573 26.619,348.539 26.488,348.539 26.167 C 348.539 25.846,348.573 25.715,348.615 25.875 C 348.657 26.035,348.657 26.298,348.615 26.458 " stroke="none" fill="#9c2c4c" fill-rule="evenodd"></path><path id="path1" d="M0.109 2.292 C 0.067 2.360,2.268 2.417,5.000 2.417 C 7.732 2.417,9.933 2.360,9.891 2.292 C 9.790 2.128,0.210 2.128,0.109 2.292 M25.958 2.291 C 27.265 2.319,29.402 2.319,30.708 2.291 C 32.015 2.263,30.946 2.240,28.333 2.240 C 25.721 2.240,24.652 2.263,25.958 2.291 M48.292 2.291 C 49.598 2.319,51.735 2.319,53.042 2.291 C 54.348 2.263,53.279 2.240,50.667 2.240 C 48.054 2.240,46.985 2.263,48.292 2.291 M180.288 9.620 C 180.584 9.657,181.109 9.658,181.455 9.622 C 181.800 9.586,181.558 9.555,180.917 9.555 C 180.275 9.554,179.992 9.583,180.288 9.620 M274.296 9.622 C 274.688 9.657,275.288 9.657,275.629 9.621 C 275.971 9.585,275.650 9.557,274.917 9.557 C 274.183 9.558,273.904 9.587,274.296 9.622 M258.372 13.500 C 258.372 13.821,258.406 13.952,258.448 13.792 C 258.490 13.631,258.490 13.369,258.448 13.208 C 258.406 13.048,258.372 13.179,258.372 13.500 M348.321 13.265 C 348.189 13.424,348.230 13.452,348.493 13.383 C 348.914 13.273,349.078 13.056,348.740 13.056 C 348.605 13.056,348.417 13.150,348.321 13.265 M111.458 20.951 C 111.665 20.991,112.002 20.991,112.208 20.951 C 112.415 20.911,112.246 20.879,111.833 20.879 C 111.421 20.879,111.252 20.911,111.458 20.951 M91.411 31.667 C 91.411 36.663,91.432 38.706,91.458 36.208 C 91.484 33.710,91.484 29.623,91.458 27.125 C 91.432 24.627,91.411 26.671,91.411 31.667 M348.539 26.167 C 348.539 26.488,348.573 26.619,348.615 26.458 C 348.657 26.298,348.657 26.035,348.615 25.875 C 348.573 25.715,348.539 25.846,348.539 26.167 " stroke="none" fill="#a02c4c" fill-rule="evenodd"></path><path id="path2" d="M0.109 2.292 C 0.067 2.360,2.268 2.417,5.000 2.417 C 7.732 2.417,9.933 2.360,9.891 2.292 C 9.790 2.128,0.210 2.128,0.109 2.292 M25.958 2.291 C 27.265 2.319,29.402 2.319,30.708 2.291 C 32.015 2.263,30.946 2.240,28.333 2.240 C 25.721 2.240,24.652 2.263,25.958 2.291 M48.292 2.291 C 49.598 2.319,51.735 2.319,53.042 2.291 C 54.348 2.263,53.279 2.240,50.667 2.240 C 48.054 2.240,46.985 2.263,48.292 2.291 M180.288 9.620 C 180.584 9.657,181.109 9.658,181.455 9.622 C 181.800 9.586,181.558 9.555,180.917 9.555 C 180.275 9.554,179.992 9.583,180.288 9.620 M274.296 9.622 C 274.688 9.657,275.288 9.657,275.629 9.621 C 275.971 9.585,275.650 9.557,274.917 9.557 C 274.183 9.558,273.904 9.587,274.296 9.622 M258.372 13.500 C 258.372 13.821,258.406 13.952,258.448 13.792 C 258.490 13.631,258.490 13.369,258.448 13.208 C 258.406 13.048,258.372 13.179,258.372 13.500 M348.321 13.265 C 348.189 13.424,348.230 13.452,348.493 13.383 C 348.914 13.273,349.078 13.056,348.740 13.056 C 348.605 13.056,348.417 13.150,348.321 13.265 M111.458 20.951 C 111.665 20.991,112.002 20.991,112.208 20.951 C 112.415 20.911,112.246 20.879,111.833 20.879 C 111.421 20.879,111.252 20.911,111.458 20.951 M91.411 31.667 C 91.411 36.663,91.432 38.706,91.458 36.208 C 91.484 33.710,91.484 29.623,91.458 27.125 C 91.432 24.627,91.411 26.671,91.411 31.667 M348.539 26.167 C 348.539 26.488,348.573 26.619,348.615 26.458 C 348.657 26.298,348.657 26.035,348.615 25.875 C 348.573 25.715,348.539 25.846,348.539 26.167 " stroke="none" fill="#a02c4c" fill-rule="evenodd"></path><path id="path3" d="M0.109 2.292 C 0.067 2.360,2.268 2.417,5.000 2.417 C 7.732 2.417,9.933 2.360,9.891 2.292 C 9.790 2.128,0.210 2.128,0.109 2.292 M25.958 2.291 C 27.265 2.319,29.402 2.319,30.708 2.291 C 32.015 2.263,30.946 2.240,28.333 2.240 C 25.721 2.240,24.652 2.263,25.958 2.291 M48.292 2.291 C 49.598 2.319,51.735 2.319,53.042 2.291 C 54.348 2.263,53.279 2.240,50.667 2.240 C 48.054 2.240,46.985 2.263,48.292 2.291 M180.288 9.620 C 180.584 9.657,181.109 9.658,181.455 9.622 C 181.800 9.586,181.558 9.555,180.917 9.555 C 180.275 9.554,179.992 9.583,180.288 9.620 M274.296 9.622 C 274.688 9.657,275.288 9.657,275.629 9.621 C 275.971 9.585,275.650 9.557,274.917 9.557 C 274.183 9.558,273.904 9.587,274.296 9.622 M258.372 13.500 C 258.372 13.821,258.406 13.952,258.448 13.792 C 258.490 13.631,258.490 13.369,258.448 13.208 C 258.406 13.048,258.372 13.179,258.372 13.500 M348.321 13.265 C 348.189 13.424,348.230 13.452,348.493 13.383 C 348.914 13.273,349.078 13.056,348.740 13.056 C 348.605 13.056,348.417 13.150,348.321 13.265 M111.458 20.951 C 111.665 20.991,112.002 20.991,112.208 20.951 C 112.415 20.911,112.246 20.879,111.833 20.879 C 111.421 20.879,111.252 20.911,111.458 20.951 M91.411 31.667 C 91.411 36.663,91.432 38.706,91.458 36.208 C 91.484 33.710,91.484 29.623,91.458 27.125 C 91.432 24.627,91.411 26.671,91.411 31.667 M348.539 26.167 C 348.539 26.488,348.573 26.619,348.615 26.458 C 348.657 26.298,348.657 26.035,348.615 25.875 C 348.573 25.715,348.539 25.846,348.539 26.167 " stroke="none" fill="#a02c4c" fill-rule="evenodd"></path><path id="path4" d="M0.109 2.292 C 0.067 2.360,2.268 2.417,5.000 2.417 C 7.732 2.417,9.933 2.360,9.891 2.292 C 9.790 2.128,0.210 2.128,0.109 2.292 M25.958 2.291 C 27.265 2.319,29.402 2.319,30.708 2.291 C 32.015 2.263,30.946 2.240,28.333 2.240 C 25.721 2.240,24.652 2.263,25.958 2.291 M48.292 2.291 C 49.598 2.319,51.735 2.319,53.042 2.291 C 54.348 2.263,53.279 2.240,50.667 2.240 C 48.054 2.240,46.985 2.263,48.292 2.291 M180.288 9.620 C 180.584 9.657,181.109 9.658,181.455 9.622 C 181.800 9.586,181.558 9.555,180.917 9.555 C 180.275 9.554,179.992 9.583,180.288 9.620 M274.296 9.622 C 274.688 9.657,275.288 9.657,275.629 9.621 C 275.971 9.585,275.650 9.557,274.917 9.557 C 274.183 9.558,273.904 9.587,274.296 9.622 M258.372 13.500 C 258.372 13.821,258.406 13.952,258.448 13.792 C 258.490 13.631,258.490 13.369,258.448 13.208 C 258.406 13.048,258.372 13.179,258.372 13.500 M348.321 13.265 C 348.189 13.424,348.230 13.452,348.493 13.383 C 348.914 13.273,349.078 13.056,348.740 13.056 C 348.605 13.056,348.417 13.150,348.321 13.265 M111.458 20.951 C 111.665 20.991,112.002 20.991,112.208 20.951 C 112.415 20.911,112.246 20.879,111.833 20.879 C 111.421 20.879,111.252 20.911,111.458 20.951 M91.411 31.667 C 91.411 36.663,91.432 38.706,91.458 36.208 C 91.484 33.710,91.484 29.623,91.458 27.125 C 91.432 24.627,91.411 26.671,91.411 31.667 M348.539 26.167 C 348.539 26.488,348.573 26.619,348.615 26.458 C 348.657 26.298,348.657 26.035,348.615 25.875 C 348.573 25.715,348.539 25.846,348.539 26.167 " stroke="none" fill="#a02c4c" fill-rule="evenodd"></path></g></svg>